ply
format ascii 1.0
comment Created by Blender 2.81 (sub 16) - www.blender.org, source file: ''
element vertex 3
property float x
property float y
property float z
property float nx
property float ny
property float nz
property float s
property float t
element face 1
property list uchar uint vertex_indices
end_header
0.000000 -1.414214 0.000000 -0.000000 0.000000 1.000000 1.000000 0.000000
0.000000 1.414214 0.000000 -0.000000 0.000000 1.000000 0.000000 1.000000
-1.414214 0.000000 0.000000 -0.000000 0.000000 1.000000 0.000000 0.000000
3 0 1 2
